<svg width="35" height="28" viewBox="0 0 35 28" fill="none" xmlns="http://www.w3.org/2000/svg">
<g clip-path="url(#clip0_116_139)">
<path d="M34.2966 3.40955C33.0124 3.9785 31.6501 4.35195 30.2553 4.5175C31.7082 3.64668 32.8238 2.26772 33.3491 0.624691C31.9679 1.44431 30.4568 2.02178 28.881 2.33216C27.5974 0.964711 25.7688 0.110107 23.7449 0.110107C19.859 0.110107 16.7084 3.26058 16.7084 7.14628C16.7084 7.69784 16.7707 8.2348 16.8906 8.74992C11.0427 8.45639 5.85803 5.65518 2.3875 1.39811C1.78195 2.43732 1.43497 3.64615 1.43497 4.93549C1.43497 7.37671 2.67728 9.5303 4.5652 10.7922C3.44782 10.7572 2.35501 10.4554 1.37803 9.91199C1.37763 9.94146 1.37763 9.97094 1.37763 10.0005C1.37763 13.4097 3.80304 16.2537 7.02184 16.9001C5.98568 17.1819 4.89883 17.2231 3.84431 17.0206C4.73963 19.8161 7.33828 21.8503 10.4172 21.9072C8.00907 23.7944 4.97502 24.9193 1.67853 24.9193C1.11049 24.9193 0.550488 24.886 0 24.821C3.11389 26.8174 6.81244 27.9823 10.786 27.9823C23.7286 27.9823 30.8059 17.2605 30.8059 7.9623C30.8059 7.65712 30.7992 7.35367 30.7855 7.05197C32.1631 6.05614 33.352 4.8227 34.2966 3.40955Z" fill="#55ACEE"/>
</g>
<defs>
<clipPath id="clip0_116_139">
<rect width="34.2966" height="28" fill="white"/>
</clipPath>
</defs>
</svg>
